<svg width="368" height="117" viewBox="0 0 368 117" fill="none" xmlns="http://www.w3.org/2000/svg">
<path d="M53.7241 36.166C52.2739 37.7773 50.1523 39.0754 47.3594 40.0601C44.5664 41.0448 41.5049 41.5371 38.1748 41.5371C33.0544 41.5371 28.9634 39.9705 25.9019 36.8374C22.8403 33.7043 21.2021 29.3447 20.9873 23.7588L20.9604 20.375C20.9604 16.5257 21.6408 13.1688 23.0015 10.3042C24.3621 7.42171 26.3047 5.21061 28.8291 3.6709C31.3714 2.11328 34.3076 1.33447 37.6377 1.33447C42.5075 1.33447 46.2852 2.45345 48.9707 4.69141C51.6742 6.91146 53.2497 10.2326 53.6973 14.6548H44.6201C44.2979 12.4705 43.5996 10.9129 42.5254 9.98193C41.4512 9.05094 39.9294 8.58545 37.96 8.58545C35.5967 8.58545 33.7705 9.58805 32.4814 11.5933C31.1924 13.5985 30.5389 16.4631 30.521 20.187V22.5503C30.521 26.4533 31.1834 29.3895 32.5083 31.3589C33.8511 33.3104 35.9548 34.2861 38.8193 34.2861C41.2721 34.2861 43.0983 33.7401 44.2979 32.6479V26.5786H37.7451V20.1064H53.7241V36.166ZM76.3633 20.1333L73.3823 19.9185C70.5356 19.9185 68.7095 20.8136 67.9038 22.604V41H58.8535V11.9424H67.3398L67.6353 15.6753C69.1571 12.8286 71.2786 11.4053 74 11.4053C74.9668 11.4053 75.8083 11.5127 76.5244 11.7275L76.3633 20.1333ZM93.1479 41.5371C88.6899 41.5371 85.0824 40.2122 82.3252 37.5625C79.568 34.8949 78.1895 31.4305 78.1895 27.1694V26.4175C78.1895 23.4455 78.7355 20.8226 79.8276 18.5488C80.9377 16.2751 82.549 14.5205 84.6616 13.2852C86.7743 12.0319 89.2808 11.4053 92.1812 11.4053C96.2632 11.4053 99.4858 12.6764 101.849 15.2188C104.212 17.7432 105.394 21.2702 105.394 25.7998V29.3179H87.4009C87.7231 30.9471 88.4303 32.2272 89.5225 33.1582C90.6146 34.0892 92.029 34.5547 93.7656 34.5547C96.6302 34.5547 98.8682 33.5521 100.479 31.5469L104.615 36.4346C103.487 37.9922 101.885 39.2365 99.8081 40.1675C97.7492 41.0806 95.5291 41.5371 93.1479 41.5371ZM92.1274 18.3877C89.4777 18.3877 87.9022 20.1423 87.4009 23.6514H96.5317V22.9531C96.5675 21.5029 96.2005 20.384 95.4307 19.5962C94.6608 18.7905 93.5597 18.3877 92.1274 18.3877ZM123.119 41.5371C118.661 41.5371 115.053 40.2122 112.296 37.5625C109.539 34.8949 108.16 31.4305 108.16 27.1694V26.4175C108.16 23.4455 108.706 20.8226 109.798 18.5488C110.908 16.2751 112.52 14.5205 114.632 13.2852C116.745 12.0319 119.251 11.4053 122.152 11.4053C126.234 11.4053 129.457 12.6764 131.82 15.2188C134.183 17.7432 135.365 21.2702 135.365 25.7998V29.3179H117.372C117.694 30.9471 118.401 32.2272 119.493 33.1582C120.585 34.0892 122 34.5547 123.736 34.5547C126.601 34.5547 128.839 33.5521 130.45 31.5469L134.586 36.4346C133.458 37.9922 131.856 39.2365 129.779 40.1675C127.72 41.0806 125.5 41.5371 123.119 41.5371ZM122.098 18.3877C119.448 18.3877 117.873 20.1423 117.372 23.6514H126.502V22.9531C126.538 21.5029 126.171 20.384 125.401 19.5962C124.632 18.7905 123.53 18.3877 122.098 18.3877ZM149.571 4.71826V11.9424H154.352V18.2266H149.571V31.52C149.571 32.6121 149.768 33.373 150.162 33.8027C150.556 34.2324 151.335 34.4473 152.499 34.4473C153.394 34.4473 154.146 34.3936 154.754 34.2861V40.7583C153.125 41.2775 151.424 41.5371 149.652 41.5371C146.537 41.5371 144.236 40.8031 142.75 39.335C141.264 37.8669 140.521 35.6379 140.521 32.6479V18.2266H136.815V11.9424H140.521V4.71826H149.571ZM167.484 41H158.407V11.9424H167.484V41ZM157.87 4.44971C157.87 3.16064 158.335 2.10433 159.266 1.28076C160.197 0.457194 161.406 0.0454102 162.892 0.0454102C164.378 0.0454102 165.586 0.457194 166.517 1.28076C167.448 2.10433 167.914 3.16064 167.914 4.44971C167.914 5.73877 167.448 6.79508 166.517 7.61865C165.586 8.44222 164.378 8.854 162.892 8.854C161.406 8.854 160.197 8.44222 159.266 7.61865C158.335 6.79508 157.87 5.73877 157.87 4.44971ZM181.395 11.9424L181.69 15.353C183.696 12.7212 186.462 11.4053 189.989 11.4053C193.014 11.4053 195.27 12.3094 196.756 14.1177C198.26 15.9259 199.039 18.6473 199.093 22.2817V41H190.016V22.6577C190.016 21.1896 189.72 20.1154 189.129 19.4351C188.539 18.7368 187.464 18.3877 185.907 18.3877C184.134 18.3877 182.818 19.0859 181.959 20.4824V41H172.909V11.9424H181.395ZM203.067 26.2563C203.067 23.3201 203.551 20.7241 204.518 18.4683C205.484 16.2124 206.872 14.4757 208.68 13.2583C210.488 12.0229 212.592 11.4053 214.991 11.4053C218.017 11.4053 220.38 12.4258 222.081 14.4668L222.403 11.9424H230.621V39.8989C230.621 42.4591 230.021 44.6792 228.822 46.5591C227.64 48.4569 225.921 49.9071 223.666 50.9097C221.41 51.9302 218.796 52.4404 215.824 52.4404C213.693 52.4404 211.625 52.0376 209.62 51.2319C207.633 50.4263 206.111 49.3789 205.055 48.0898L208.841 42.7725C210.524 44.7598 212.744 45.7534 215.501 45.7534C219.512 45.7534 221.517 43.6945 221.517 39.5767V38.6636C219.78 40.5793 217.587 41.5371 214.938 41.5371C211.393 41.5371 208.528 40.1854 206.344 37.4819C204.16 34.7606 203.067 31.1261 203.067 26.5786V26.2563ZM212.145 26.8203C212.145 29.2015 212.592 31.0903 213.487 32.4868C214.382 33.8654 215.636 34.5547 217.247 34.5547C219.199 34.5547 220.622 33.9012 221.517 32.5942V20.375C220.64 19.0501 219.234 18.3877 217.301 18.3877C215.689 18.3877 214.427 19.1128 213.514 20.563C212.601 21.9953 212.145 24.0811 212.145 26.8203ZM282.533 41H273.16L259.303 16.6689V41H249.876V1.89844H259.303L273.133 26.2295V1.89844H282.533V41ZM313.121 25.4238H297.921V41H288.495V1.89844H314.652V9.17627H297.921V18.1729H313.121V25.4238ZM349.806 9.17627H338.07V41H328.644V9.17627H317.123V1.89844H349.806V9.17627ZM116.351 97.6953H103.434L101.178 105H91.1069L105.448 65.8984H114.31L128.758 105H118.634L116.351 97.6953ZM105.689 90.4175H114.095L109.879 76.8555L105.689 90.4175ZM140.763 105H131.686V75.9424H140.763V105ZM131.148 68.4497C131.148 67.1606 131.614 66.1043 132.545 65.2808C133.476 64.4572 134.684 64.0454 136.17 64.0454C137.656 64.0454 138.865 64.4572 139.796 65.2808C140.727 66.1043 141.192 67.1606 141.192 68.4497C141.192 69.7388 140.727 70.7951 139.796 71.6187C138.865 72.4422 137.656 72.854 136.17 72.854C134.684 72.854 133.476 72.4422 132.545 71.6187C131.614 70.7951 131.148 69.7388 131.148 68.4497ZM163.939 84.1333L160.958 83.9185C158.111 83.9185 156.285 84.8136 155.479 86.604V105H146.429V75.9424H154.916L155.211 79.6753C156.733 76.8286 158.854 75.4053 161.576 75.4053C162.542 75.4053 163.384 75.5127 164.1 75.7275L163.939 84.1333ZM165.523 90.2563C165.523 85.6551 166.517 82.0296 168.504 79.3799C170.492 76.7301 173.267 75.4053 176.83 75.4053C179.426 75.4053 181.61 76.4258 183.382 78.4668V63.75H192.459V105H184.322L183.866 101.885C182.004 104.32 179.64 105.537 176.776 105.537C173.32 105.537 170.581 104.212 168.558 101.562C166.535 98.9128 165.523 95.144 165.523 90.2563ZM174.574 90.8203C174.574 95.9766 176.078 98.5547 179.085 98.5547C181.091 98.5547 182.523 97.7132 183.382 96.0303V84.9658C182.559 83.2471 181.144 82.3877 179.139 82.3877C176.346 82.3877 174.833 84.6436 174.601 89.1553L174.574 90.8203ZM215.179 84.1333L212.198 83.9185C209.352 83.9185 207.525 84.8136 206.72 86.604V105H197.669V75.9424H206.156L206.451 79.6753C207.973 76.8286 210.095 75.4053 212.816 75.4053C213.783 75.4053 214.624 75.5127 215.34 75.7275L215.179 84.1333ZM216.334 90.2026C216.334 87.3022 216.898 84.7241 218.026 82.4683C219.154 80.1945 220.774 78.4489 222.887 77.2314C224.999 76.014 227.479 75.4053 230.326 75.4053C234.676 75.4053 238.105 76.757 240.611 79.4604C243.118 82.146 244.371 85.8073 244.371 90.4443V90.7666C244.371 95.2962 243.109 98.8949 240.584 101.562C238.078 104.212 234.676 105.537 230.379 105.537C226.244 105.537 222.923 104.302 220.416 101.831C217.91 99.3424 216.558 95.9766 216.361 91.7334L216.334 90.2026ZM225.384 90.7666C225.384 93.4521 225.805 95.4215 226.646 96.6748C227.488 97.9281 228.732 98.5547 230.379 98.5547C233.602 98.5547 235.249 96.075 235.321 91.1157V90.2026C235.321 84.9927 233.656 82.3877 230.326 82.3877C227.3 82.3877 225.662 84.6346 225.411 89.1284L225.384 90.7666ZM275.335 90.686C275.335 95.1978 274.315 98.8053 272.274 101.509C270.251 104.194 267.512 105.537 264.056 105.537C261.389 105.537 259.195 104.561 257.477 102.61V116.172H248.426V75.9424H256.886L257.154 78.6279C258.891 76.4795 261.174 75.4053 264.002 75.4053C267.583 75.4053 270.367 76.7301 272.354 79.3799C274.342 82.0117 275.335 85.6372 275.335 90.2563V90.686ZM266.285 90.1221C266.285 84.9658 264.781 82.3877 261.773 82.3877C259.625 82.3877 258.193 83.1576 257.477 84.6973V96.1377C258.264 97.749 259.715 98.5547 261.827 98.5547C264.71 98.5547 266.196 96.0661 266.285 91.0889V90.1221Z" fill="#4579C6"/>
</svg>
